{
  "accessors": [
    {
      "bufferView": 2,
      "componentType": 5126,
      "count": 5666,
      "max": [
        4.933891773223877,
        4.255598068237305,
        29.49370765686035
      ],
      "min": [
        -3.6467700004577637,
        -2.6240999698638916,
        0.05483900010585785
      ],
      "type": "VEC3"
    },
    {
      "bufferView": 2,
      "byteOffset": 67992,
      "componentType": 5126,
      "count": 5666,
      "max": [
        0.9996660351753235,
        0.9991742372512817,
        0.9997145533561707
      ],
      "min": [
        -0.9997467398643494,
        -0.9999468326568604,
        -0.9999901056289673
      ],
      "type": "VEC3"
    },
    {
      "bufferView": 1,
      "componentType": 5126,
      "count": 5666,
      "max": [
        -14.622247695922852,
        17.48880386352539
      ],
      "min": [
        -15.998448371887207,
        16.003131866455078
      ],
      "type": "VEC2"
    },
    {
      "bufferView": 0,
      "componentType": 5125,
      "count": 25080,
      "type": "SCALAR"
    },
    {
      "bufferView": 2,
      "byteOffset": 135984,
      "componentType": 5126,
      "count": 63,
      "max": [
        -1.296434998512268,
        -0.803725004196167,
        19.19363784790039
      ],
      "min": [
        -1.8610589504241943,
        -1.2407419681549072,
        16.61661148071289
      ],
      "type": "VEC3"
    },
    {
      "bufferView": 2,
      "byteOffset": 136740,
      "componentType": 5126,
      "count": 63,
      "max": [
        0.4453892707824707,
        0.7313933968544006,
        0.9970558881759644
      ],
      "min": [
        -0.9980120658874512,
        -0.9887420535087585,
        -0.8762898445129395
      ],
      "type": "VEC3"
    },
    {
      "bufferView": 1,
      "byteOffset": 45328,
      "componentType": 5126,
      "count": 63,
      "max": [
        -15.65633487701416,
        16.76173973083496
      ],
      "min": [
        -15.715921401977539,
        16.70123291015625
      ],
      "type": "VEC2"
    },
    {
      "bufferView": 0,
      "byteOffset": 100320,
      "componentType": 5125,
      "count": 270,
      "type": "SCALAR"
    },
    {
      "bufferView": 2,
      "byteOffset": 137496,
      "componentType": 5126,
      "count": 74,
      "max": [
        1.6907960176467896,
        0.24386200308799744,
        26.794668197631836
      ],
      "min": [
        0.3478350043296814,
        -0.031244000419974327,
        26.158517837524414
      ],
      "type": "VEC3"
    },
    {
      "bufferView": 2,
      "byteOffset": 138384,
      "componentType": 5126,
      "count": 74,
      "max": [
        0.9368744492530823,
        -0.10060197860002518,
        0.8939440846443176
      ],
      "min": [
        -0.9559272527694702,
        -0.9870566725730896,
        -0.9747191667556763
      ],
      "type": "VEC3"
    },
    {
      "bufferView": 1,
      "byteOffset": 45832,
      "componentType": 5126,
      "count": 74,
      "max": [
        -15.483199119567871,
        16.456459045410156
      ],
      "min": [
        -15.537749290466309,
        16.401958465576172
      ],
      "type": "VEC2"
    },
    {
      "bufferView": 0,
      "byteOffset": 101400,
      "componentType": 5125,
      "count": 360,
      "type": "SCALAR"
    }
  ],
  "asset": {
    "extras": {
      "author": "romeu3dprint (https://sketchfab.com/romeu3dprint)",
      "license": "CC-BY-4.0 (http://creativecommons.org/licenses/by/4.0/)",
      "source": "https://sketchfab.com/3d-models/the-joker-adbce796378145a2a757b5b299615ac2",
      "title": "The Joker"
    },
    "generator": "Sketchfab-12.66.0",
    "version": "2.0"
  },
  "bufferViews": [
    {
      "buffer": 0,
      "byteLength": 102840,
      "name": "floatBufferViews",
      "target": 34963
    },
    {
      "buffer": 0,
      "byteLength": 46424,
      "byteOffset": 102840,
      "byteStride": 8,
      "name": "floatBufferViews",
      "target": 34962
    },
    {
      "buffer": 0,
      "byteLength": 139272,
      "byteOffset": 149264,
      "byteStride": 12,
      "name": "floatBufferViews",
      "target": 34962
    }
  ],
  "buffers": [
    {
      "byteLength": 288536,
      "uri": "scene.bin"
    }
  ],
  "images": [
    {
      "uri": "textures/24_Body_1_16_16.001_baseColor.png"
    }
  ],
  "materials": [
    {
      "doubleSided": true,
      "name": "24_Body_1_16_16.001",
      "pbrMetallicRoughness": {
        "baseColorTexture": {
          "index": 0
        },
        "metallicFactor": 0.0,
        "roughnessFactor": 0.6
      }
    },
    {
      "doubleSided": true,
      "name": "27_ButtonsREF_1_16_16.001",
      "pbrMetallicRoughness": {
        "metallicFactor": 0.0,
        "roughnessFactor": 0.6
      }
    },
    {
      "doubleSided": true,
      "name": "27_EyeREF_1_16_16.002",
      "pbrMetallicRoughness": {
        "baseColorTexture": {
          "index": 0
        },
        "metallicFactor": 0.0,
        "roughnessFactor": 0.6
      }
    }
  ],
  "meshes": [
    {
      "name": "Object_0",
      "primitives": [
        {
          "attributes": {
            "NORMAL": 1,
            "POSITION": 0,
            "TEXCOORD_0": 2
          },
          "indices": 3,
          "material": 0,
          "mode": 4
        }
      ]
    },
    {
      "name": "Object_1",
      "primitives": [
        {
          "attributes": {
            "NORMAL": 5,
            "POSITION": 4,
            "TEXCOORD_0": 6
          },
          "indices": 7,
          "material": 1,
          "mode": 4
        }
      ]
    },
    {
      "name": "Object_2",
      "primitives": [
        {
          "attributes": {
            "NORMAL": 9,
            "POSITION": 8,
            "TEXCOORD_0": 10
          },
          "indices": 11,
          "material": 2,
          "mode": 4
        }
      ]
    }
  ],
  "nodes": [
    {
      "children": [
        1
      ],
      "matrix": [
        1.0,
        0.0,
        0.0,
        0.0,
        0.0,
        2.220446049250313e-16,
        -1.0,
        0.0,
        0.0,
        1.0,
        2.220446049250313e-16,
        0.0,
        0.0,
        0.0,
        0.0,
        1.0
      ],
      "name": "Sketchfab_model"
    },
    {
      "children": [
        2,
        3,
        4
      ],
      "name": "untitled.obj.cleaner.materialmerger.gles"
    },
    {
      "mesh": 0,
      "name": "Object_2"
    },
    {
      "mesh": 1,
      "name": "Object_3"
    },
    {
      "mesh": 2,
      "name": "Object_4"
    }
  ],
  "samplers": [
    {
      "magFilter": 9729,
      "minFilter": 9987,
      "wrapS": 10497,
      "wrapT": 10497
    }
  ],
  "scene": 0,
  "scenes": [
    {
      "name": "Sketchfab_Scene",
      "nodes": [
        0
      ]
    }
  ],
  "textures": [
    {
      "sampler": 0,
      "source": 0
    }
  ]
}
