{
  "accessors": [
    {
      "bufferView": 2,
      "componentType": 5126,
      "count": 65532,
      "max": [
        9.631779670715332,
        12.851339340209961,
        6.534860134124756
      ],
      "min": [
        0.9285798072814941,
        0.0,
        0.0
      ],
      "type": "VEC3"
    },
    {
      "bufferView": 2,
      "byteOffset": 786384,
      "componentType": 5126,
      "count": 65532,
      "max": [
        0.999997615814209,
        0.9999855160713196,
        0.9999871253967285
      ],
      "min": [
        -0.9999752640724182,
        -1.0,
        -0.9999978542327881
      ],
      "type": "VEC3"
    },
    {
      "bufferView": 1,
      "componentType": 5126,
      "count": 65532,
      "max": [
        0.9990419745445251,
        0.9990460276603699
      ],
      "min": [
        0.0009537970181554556,
        0.0009534709970466793
      ],
      "type": "VEC2"
    },
    {
      "bufferView": 0,
      "componentType": 5125,
      "count": 374520,
      "type": "SCALAR"
    },
    {
      "bufferView": 2,
      "byteOffset": 1572768,
      "componentType": 5126,
      "count": 65532,
      "max": [
        8.703189849853516,
        12.851339340209961,
        6.534860134124756
      ],
      "min": [
        0.0,
        0.0,
        0.0
      ],
      "type": "VEC3"
    },
    {
      "bufferView": 2,
      "byteOffset": 2359152,
      "componentType": 5126,
      "count": 65532,
      "max": [
        0.99751877784729,
        0.9999855160713196,
        0.9999871253967285
      ],
      "min": [
        -0.9999966621398926,
        -1.0,
        -0.9999978542327881
      ],
      "type": "VEC3"
    },
    {
      "bufferView": 1,
      "byteOffset": 524256,
      "componentType": 5126,
      "count": 65532,
      "max": [
        0.9990419745445251,
        0.9990460276603699
      ],
      "min": [
        0.0009537970181554556,
        0.0009537970181554556
      ],
      "type": "VEC2"
    },
    {
      "bufferView": 0,
      "byteOffset": 1498080,
      "componentType": 5125,
      "count": 372540,
      "type": "SCALAR"
    },
    {
      "bufferView": 2,
      "byteOffset": 3145536,
      "componentType": 5126,
      "count": 6272,
      "max": [
        4.815890789031982,
        4.761750221252441,
        5.041020393371582
      ],
      "min": [
        2.866569995880127,
        0.003009796142578125,
        0.41808009147644043
      ],
      "type": "VEC3"
    },
    {
      "bufferView": 2,
      "byteOffset": 3220800,
      "componentType": 5126,
      "count": 6272,
      "max": [
        0.3062969744205475,
        0.9371605515480042,
        0.9998829960823059
      ],
      "min": [
        -0.9929072260856628,
        -0.9993965029716492,
        -0.8874661326408386
      ],
      "type": "VEC3"
    },
    {
      "bufferView": 1,
      "byteOffset": 1048512,
      "componentType": 5126,
      "count": 6272,
      "max": [
        0.8251309990882874,
        0.9374499917030334
      ],
      "min": [
        0.41762199997901917,
        0.5516809821128845
      ],
      "type": "VEC2"
    },
    {
      "bufferView": 0,
      "byteOffset": 2988240,
      "componentType": 5125,
      "count": 33300,
      "type": "SCALAR"
    }
  ],
  "asset": {
    "extras": {
      "author": "fpernudo (https://sketchfab.com/fpernudo)",
      "license": "CC-BY-NC-4.0 (http://creativecommons.org/licenses/by-nc/4.0/)",
      "source": "https://sketchfab.com/3d-models/martian-manhunter-fa7f9c23870e4f88a671d3aad8ac804c",
      "title": "Martian Manhunter"
    },
    "generator": "Sketchfab-12.68.0",
    "version": "2.0"
  },
  "bufferViews": [
    {
      "buffer": 0,
      "byteLength": 3121440,
      "name": "floatBufferViews",
      "target": 34963
    },
    {
      "buffer": 0,
      "byteLength": 1098688,
      "byteOffset": 3121440,
      "byteStride": 8,
      "name": "floatBufferViews",
      "target": 34962
    },
    {
      "buffer": 0,
      "byteLength": 3296064,
      "byteOffset": 4220128,
      "byteStride": 12,
      "name": "floatBufferViews",
      "target": 34962
    }
  ],
  "buffers": [
    {
      "byteLength": 7516192,
      "uri": "scene.bin"
    }
  ],
  "extensionsRequired": [
    "KHR_materials_pbrSpecularGlossiness"
  ],
  "extensionsUsed": [
    "KHR_materials_pbrSpecularGlossiness"
  ],
  "images": [
    {
      "uri": "textures/SculptMaterial_diffuse.png"
    },
    {
      "uri": "textures/SculptMaterial_specularGlossiness.png"
    }
  ],
  "materials": [
    {
      "doubleSided": true,
      "emissiveTexture": {
        "index": 0
      },
      "extensions": {
        "KHR_materials_pbrSpecularGlossiness": {
          "diffuseFactor": [
            1.0,
            1.0,
            1.0,
            1.0
          ],
          "diffuseTexture": {
            "index": 0
          },
          "glossinessFactor": 1.0,
          "specularFactor": [
            0.64,
            0.64,
            0.64
          ],
          "specularGlossinessTexture": {
            "index": 1
          }
        }
      },
      "name": "SculptMaterial"
    }
  ],
  "meshes": [
    {
      "name": "Object_0",
      "primitives": [
        {
          "attributes": {
            "NORMAL": 1,
            "POSITION": 0,
            "TEXCOORD_0": 2
          },
          "indices": 3,
          "material": 0,
          "mode": 4
        }
      ]
    },
    {
      "name": "Object_1",
      "primitives": [
        {
          "attributes": {
            "NORMAL": 5,
            "POSITION": 4,
            "TEXCOORD_0": 6
          },
          "indices": 7,
          "material": 0,
          "mode": 4
        }
      ]
    },
    {
      "name": "Object_2",
      "primitives": [
        {
          "attributes": {
            "NORMAL": 9,
            "POSITION": 8,
            "TEXCOORD_0": 10
          },
          "indices": 11,
          "material": 0,
          "mode": 4
        }
      ]
    }
  ],
  "nodes": [
    {
      "children": [
        1
      ],
      "matrix": [
        1.0,
        0.0,
        0.0,
        0.0,
        0.0,
        -0.9854851961135864,
        0.16976143419742562,
        0.0,
        0.0,
        -0.16976143419742562,
        -0.9854851961135864,
        0.0,
        0.0,
        -0.00911785662174256,
        1.405738353729248,
        1.0
      ],
      "name": "Sketchfab_model"
    },
    {
      "children": [
        2,
        3,
        4
      ],
      "matrix": [
        1.0,
        0.0,
        0.0,
        0.0,
        0.0,
        1.0,
        0.0,
        0.0,
        0.0,
        0.0,
        1.0,
        0.0,
        -4.815889835357666,
        -7.13238000869751,
        -2.679840087890625,
        1.0
      ],
      "name": "martian .obj.cleaner.gles"
    },
    {
      "mesh": 0,
      "name": "Object_2"
    },
    {
      "mesh": 1,
      "name": "Object_3"
    },
    {
      "mesh": 2,
      "name": "Object_4"
    }
  ],
  "samplers": [
    {
      "magFilter": 9729,
      "minFilter": 9987,
      "wrapS": 10497,
      "wrapT": 10497
    }
  ],
  "scene": 0,
  "scenes": [
    {
      "name": "Sketchfab_Scene",
      "nodes": [
        0
      ]
    }
  ],
  "textures": [
    {
      "sampler": 0,
      "source": 0
    },
    {
      "sampler": 0,
      "source": 1
    }
  ]
}
