{
  "accessors": [
    {
      "bufferView": 2,
      "componentType": 5126,
      "count": 28,
      "max": [
        0.03050599992275238,
        1.8056199550628662,
        0.08354800194501877
      ],
      "min": [
        -0.0726500004529953,
        1.7950259447097778,
        0.061250001192092896
      ],
      "type": "VEC3"
    },
    {
      "bufferView": 2,
      "byteOffset": 336,
      "componentType": 5126,
      "count": 28,
      "max": [
        0.7945796251296997,
        0.04921923950314522,
        0.9862909317016602
      ],
      "min": [
        -0.9468032121658325,
        -0.5442876815795898,
        0.31194615364074707
      ],
      "type": "VEC3"
    },
    {
      "bufferView": 1,
      "componentType": 5126,
      "count": 28,
      "max": [
        0.49851301312446594,
        0.8309779763221741
      ],
      "min": [
        0.3642120063304901,
        0.8298869729042053
      ],
      "type": "VEC2"
    },
    {
      "bufferView": 0,
      "componentType": 5125,
      "count": 36,
      "type": "SCALAR"
    },
    {
      "bufferView": 2,
      "byteOffset": 672,
      "componentType": 5126,
      "count": 116,
      "max": [
        0.020419999957084656,
        1.8068519830703735,
        0.08419500291347504
      ],
      "min": [
        -0.06574500352144241,
        1.7939800024032593,
        0.0684870034456253
      ],
      "type": "VEC3"
    },
    {
      "bufferView": 2,
      "byteOffset": 2064,
      "componentType": 5126,
      "count": 116,
      "max": [
        0.5273100733757019,
        0.5481418967247009,
        0.998123824596405
      ],
      "min": [
        -0.7302862405776978,
        -0.8055562973022461,
        0.5605041980743408
      ],
      "type": "VEC3"
    },
    {
      "bufferView": 1,
      "byteOffset": 224,
      "componentType": 5126,
      "count": 116,
      "max": [
        0.49896299839019775,
        0.8304330110549927
      ],
      "min": [
        0.43136200308799744,
        0.8298799991607666
      ],
      "type": "VEC2"
    },
    {
      "bufferView": 0,
      "byteOffset": 144,
      "componentType": 5125,
      "count": 132,
      "type": "SCALAR"
    },
    {
      "bufferView": 2,
      "byteOffset": 3456,
      "componentType": 5126,
      "count": 952,
      "max": [
        0.4138669967651367,
        1.4417890310287476,
        0.08602099865674973
      ],
      "min": [
        -0.5511689782142639,
        0.048177000135183334,
        -0.1817069947719574
      ],
      "type": "VEC3"
    },
    {
      "bufferView": 2,
      "byteOffset": 14880,
      "componentType": 5126,
      "count": 952,
      "max": [
        0.9998413324356079,
        0.9984279274940491,
        0.9997769594192505
      ],
      "min": [
        -0.9967280626296997,
        -0.9921814203262329,
        -0.9934235215187073
      ],
      "type": "VEC3"
    },
    {
      "bufferView": 1,
      "byteOffset": 1152,
      "componentType": 5126,
      "count": 952,
      "max": [
        1.216528058052063,
        1.0
      ],
      "min": [
        -0.1573210060596466,
        -0.3308430016040802
      ],
      "type": "VEC2"
    },
    {
      "bufferView": 0,
      "byteOffset": 672,
      "componentType": 5125,
      "count": 1236,
      "type": "SCALAR"
    },
    {
      "bufferView": 2,
      "byteOffset": 26304,
      "componentType": 5126,
      "count": 1892,
      "max": [
        0.3837850093841553,
        1.8944319486618042,
        0.10561899840831757
      ],
      "min": [
        -0.545589029788971,
        0.8102989792823792,
        -0.13972100615501404
      ],
      "type": "VEC3"
    },
    {
      "bufferView": 2,
      "byteOffset": 49008,
      "componentType": 5126,
      "count": 1892,
      "max": [
        0.9995416402816772,
        0.9991294741630554,
        0.9999057650566101
      ],
      "min": [
        -0.9989846348762512,
        -0.9996680021286011,
        -0.999411940574646
      ],
      "type": "VEC3"
    },
    {
      "bufferView": 1,
      "byteOffset": 8768,
      "componentType": 5126,
      "count": 1892,
      "max": [
        0.7709199786186218,
        1.0
      ],
      "min": [
        0.0,
        0.0
      ],
      "type": "VEC2"
    },
    {
      "bufferView": 0,
      "byteOffset": 5616,
      "componentType": 5125,
      "count": 2670,
      "type": "SCALAR"
    },
    {
      "bufferView": 2,
      "byteOffset": 71712,
      "componentType": 5126,
      "count": 1708,
      "max": [
        0.40788400173187256,
        1.6508560180664063,
        0.10689699649810791
      ],
      "min": [
        -0.3494719862937927,
        0.4917770028114319,
        -0.3442780077457428
      ],
      "type": "VEC3"
    },
    {
      "bufferView": 2,
      "byteOffset": 92208,
      "componentType": 5126,
      "count": 1708,
      "max": [
        0.9987859725952148,
        0.999849259853363,
        0.9998827576637268
      ],
      "min": [
        -0.9989935159683228,
        -0.994587779045105,
        -0.9996533393859863
      ],
      "type": "VEC3"
    },
    {
      "bufferView": 1,
      "byteOffset": 23904,
      "componentType": 5126,
      "count": 1708,
      "max": [
        1.0,
        1.0
      ],
      "min": [
        0.0,
        0.0
      ],
      "type": "VEC2"
    },
    {
      "bufferView": 0,
      "byteOffset": 16296,
      "componentType": 5125,
      "count": 2328,
      "type": "SCALAR"
    },
    {
      "bufferView": 2,
      "byteOffset": 112704,
      "componentType": 5126,
      "count": 3330,
      "max": [
        0.4195460081100464,
        1.6697620153427124,
        0.16345100104808807
      ],
      "min": [
        -0.45574501156806946,
        -0.014793000183999538,
        -0.3343279957771301
      ],
      "type": "VEC3"
    },
    {
      "bufferView": 2,
      "byteOffset": 152664,
      "componentType": 5126,
      "count": 3330,
      "max": [
        0.9998323917388916,
        0.9994844198226929,
        0.9995494484901428
      ],
      "min": [
        -0.999837338924408,
        -0.9999078512191772,
        -0.9999260902404785
      ],
      "type": "VEC3"
    },
    {
      "bufferView": 1,
      "byteOffset": 37568,
      "componentType": 5126,
      "count": 3330,
      "max": [
        1.216528058052063,
        1.0
      ],
      "min": [
        -0.1573210060596466,
        -0.36259299516677856
      ],
      "type": "VEC2"
    },
    {
      "bufferView": 0,
      "byteOffset": 25608,
      "componentType": 5125,
      "count": 4710,
      "type": "SCALAR"
    },
    {
      "bufferView": 2,
      "byteOffset": 192624,
      "componentType": 5126,
      "count": 2294,
      "max": [
        0.1847510039806366,
        1.9590380191802979,
        0.10098099708557129
      ],
      "min": [
        -0.1888899952173233,
        1.5068060159683228,
        -0.21774399280548096
      ],
      "type": "VEC3"
    },
    {
      "bufferView": 2,
      "byteOffset": 220152,
      "componentType": 5126,
      "count": 2294,
      "max": [
        0.9980871081352234,
        0.9998398423194885,
        0.9997193217277527
      ],
      "min": [
        -0.9986055493354797,
        -0.9972056746482849,
        -0.9994809627532959
      ],
      "type": "VEC3"
    },
    {
      "bufferView": 1,
      "byteOffset": 64208,
      "componentType": 5126,
      "count": 2294,
      "max": [
        0.7709199786186218,
        0.8339539766311646
      ],
      "min": [
        0.0,
        0.0
      ],
      "type": "VEC2"
    },
    {
      "bufferView": 0,
      "byteOffset": 44448,
      "componentType": 5125,
      "count": 2856,
      "type": "SCALAR"
    },
    {
      "bufferView": 2,
      "byteOffset": 247680,
      "componentType": 5126,
      "count": 1816,
      "max": [
        -0.377824991941452,
        2.0702900886535645,
        -0.01924699917435646
      ],
      "min": [
        -0.6589400172233582,
        -0.0020989999175071716,
        -0.14084100723266602
      ],
      "type": "VEC3"
    },
    {
      "bufferView": 2,
      "byteOffset": 269472,
      "componentType": 5126,
      "count": 1816,
      "max": [
        0.9994631409645081,
        0.9100362658500671,
        0.9990089535713196
      ],
      "min": [
        -0.9981875419616699,
        -0.965873658657074,
        -0.9991353750228882
      ],
      "type": "VEC3"
    },
    {
      "bufferView": 1,
      "byteOffset": 82560,
      "componentType": 5126,
      "count": 1816,
      "max": [
        0.995048999786377,
        0.995048999786377
      ],
      "min": [
        0.0,
        0.0
      ],
      "type": "VEC2"
    },
    {
      "bufferView": 0,
      "byteOffset": 55872,
      "componentType": 5125,
      "count": 2472,
      "type": "SCALAR"
    }
  ],
  "asset": {
    "extras": {
      "author": "DavidA3D (https://sketchfab.com/DavidA3D)",
      "license": "CC-BY-NC-4.0 (http://creativecommons.org/licenses/by-nc/4.0/)",
      "source": "https://sketchfab.com/3d-models/aquaman-jason-momoa-c3f13bbc4f98488db53ecc711fdd6894",
      "title": "Aquaman (Jason Momoa)"
    },
    "generator": "Sketchfab-12.67.0",
    "version": "2.0"
  },
  "bufferViews": [
    {
      "buffer": 0,
      "byteLength": 65760,
      "name": "floatBufferViews",
      "target": 34963
    },
    {
      "buffer": 0,
      "byteLength": 97088,
      "byteOffset": 65760,
      "byteStride": 8,
      "name": "floatBufferViews",
      "target": 34962
    },
    {
      "buffer": 0,
      "byteLength": 291264,
      "byteOffset": 162848,
      "byteStride": 12,
      "name": "floatBufferViews",
      "target": 34962
    }
  ],
  "buffers": [
    {
      "byteLength": 454112,
      "uri": "scene.bin"
    }
  ],
  "materials": [
    {
      "doubleSided": true,
      "name": "EyeWhites",
      "pbrMetallicRoughness": {
        "baseColorFactor": [
          0.8,
          0.8,
          0.8,
          1.0
        ],
        "roughnessFactor": 0.532202743902439
      }
    },
    {
      "doubleSided": true,
      "name": "Eyes",
      "pbrMetallicRoughness": {
        "baseColorFactor": [
          0.517647,
          0.7098040000000005,
          0.7999999999999999,
          1.0
        ],
        "roughnessFactor": 0.5383003048780488
      }
    },
    {
      "doubleSided": true,
      "name": "Brown",
      "pbrMetallicRoughness": {
        "baseColorFactor": [
          0.19413198274092813,
          0.16440507308762034,
          0.13710030621050692,
          1.0
        ],
        "metallicFactor": 0.4407393292682927,
        "roughnessFactor": 0.7029344512195121
      }
    },
    {
      "doubleSided": true,
      "name": "Skin",
      "pbrMetallicRoughness": {
        "baseColorFactor": [
          0.6358071275813759,
          0.549535322455325,
          0.4889516336401363,
          1.0
        ],
        "metallicFactor": 0.0
      }
    },
    {
      "doubleSided": true,
      "name": "Green",
      "pbrMetallicRoughness": {
        "baseColorFactor": [
          0.156863,
          0.333333,
          0.16078399999999998,
          1.0
        ],
        "roughnessFactor": 0.7761051829268293
      }
    },
    {
      "doubleSided": true,
      "name": "Gold",
      "pbrMetallicRoughness": {
        "baseColorFactor": [
          0.5529409999999999,
          0.4784309999999998,
          0.21176499999999987,
          1.0
        ],
        "roughnessFactor": 0.5139100609756098
      }
    },
    {
      "doubleSided": true,
      "name": "Hair",
      "pbrMetallicRoughness": {
        "baseColorFactor": [
          0.10829235995947611,
          0.08403842325114468,
          0.07738871728384587,
          1.0
        ],
        "metallicFactor": 0.24561737804878048
      }
    },
    {
      "doubleSided": true,
      "name": "Silver",
      "pbrMetallicRoughness": {
        "baseColorFactor": [
          0.623529,
          0.658824,
          0.666667,
          1.0
        ],
        "roughnessFactor": 0.3797637195121951
      }
    }
  ],
  "meshes": [
    {
      "name": "Generic.001_EyeWhites_0",
      "primitives": [
        {
          "attributes": {
            "NORMAL": 1,
            "POSITION": 0,
            "TEXCOORD_0": 2
          },
          "indices": 3,
          "material": 0,
          "mode": 4
        }
      ]
    },
    {
      "name": "Generic.001_Eyes_0",
      "primitives": [
        {
          "attributes": {
            "NORMAL": 5,
            "POSITION": 4,
            "TEXCOORD_0": 6
          },
          "indices": 7,
          "material": 1,
          "mode": 4
        }
      ]
    },
    {
      "name": "Generic.001_Brown_0",
      "primitives": [
        {
          "attributes": {
            "NORMAL": 9,
            "POSITION": 8,
            "TEXCOORD_0": 10
          },
          "indices": 11,
          "material": 2,
          "mode": 4
        }
      ]
    },
    {
      "name": "Generic.001_Skin_0",
      "primitives": [
        {
          "attributes": {
            "NORMAL": 13,
            "POSITION": 12,
            "TEXCOORD_0": 14
          },
          "indices": 15,
          "material": 3,
          "mode": 4
        }
      ]
    },
    {
      "name": "Generic.001_Green_0",
      "primitives": [
        {
          "attributes": {
            "NORMAL": 17,
            "POSITION": 16,
            "TEXCOORD_0": 18
          },
          "indices": 19,
          "material": 4,
          "mode": 4
        }
      ]
    },
    {
      "name": "Generic.001_Gold_0",
      "primitives": [
        {
          "attributes": {
            "NORMAL": 21,
            "POSITION": 20,
            "TEXCOORD_0": 22
          },
          "indices": 23,
          "material": 5,
          "mode": 4
        }
      ]
    },
    {
      "name": "Generic.001_Hair_0",
      "primitives": [
        {
          "attributes": {
            "NORMAL": 25,
            "POSITION": 24,
            "TEXCOORD_0": 26
          },
          "indices": 27,
          "material": 6,
          "mode": 4
        }
      ]
    },
    {
      "name": "Generic.001_Silver_0",
      "primitives": [
        {
          "attributes": {
            "NORMAL": 29,
            "POSITION": 28,
            "TEXCOORD_0": 30
          },
          "indices": 31,
          "material": 7,
          "mode": 4
        }
      ]
    }
  ],
  "nodes": [
    {
      "children": [
        1
      ],
      "matrix": [
        1.0,
        0.0,
        0.0,
        0.0,
        0.0,
        2.220446049250313e-16,
        -1.0,
        0.0,
        0.0,
        1.0,
        2.220446049250313e-16,
        0.0,
        0.0,
        0.0,
        0.0,
        1.0
      ],
      "name": "Sketchfab_model"
    },
    {
      "children": [
        2
      ],
      "matrix": [
        1.0,
        0.0,
        0.0,
        0.0,
        0.0,
        0.0,
        1.0,
        0.0,
        0.0,
        -1.0,
        0.0,
        0.0,
        0.0,
        0.0,
        0.0,
        1.0
      ],
      "name": "e973f590a2d64b24a896a064abec37e3.fbx"
    },
    {
      "children": [
        3
      ],
      "name": "RootNode"
    },
    {
      "children": [
        4,
        5,
        6,
        7,
        8,
        9,
        10,
        11
      ],
      "matrix": [
        100.0,
        0.0,
        0.0,
        0.0,
        0.0,
        99.99999999999866,
        1.6292067073209114e-05,
        0.0,
        0.0,
        -1.6292067073209114e-05,
        99.99999999999866,
        0.0,
        0.0,
        0.0,
        0.0,
        1.0
      ],
      "name": "Generic.001"
    },
    {
      "mesh": 0,
      "name": "Generic.001_EyeWhites_0"
    },
    {
      "mesh": 1,
      "name": "Generic.001_Eyes_0"
    },
    {
      "mesh": 2,
      "name": "Generic.001_Brown_0"
    },
    {
      "mesh": 3,
      "name": "Generic.001_Skin_0"
    },
    {
      "mesh": 4,
      "name": "Generic.001_Green_0"
    },
    {
      "mesh": 5,
      "name": "Generic.001_Gold_0"
    },
    {
      "mesh": 6,
      "name": "Generic.001_Hair_0"
    },
    {
      "mesh": 7,
      "name": "Generic.001_Silver_0"
    }
  ],
  "scene": 0,
  "scenes": [
    {
      "name": "Sketchfab_Scene",
      "nodes": [
        0
      ]
    }
  ]
}
