{
  "accessors": [
    {
      "bufferView": 2,
      "componentType": 5126,
      "count": 284,
      "max": [
        0.3221200108528137,
        0.17938999831676483,
        0.014840000309050083
      ],
      "min": [
        -0.3241899907588959,
        -0.3128400146961212,
        -0.11159999668598175
      ],
      "type": "VEC3"
    },
    {
      "bufferView": 2,
      "byteOffset": 3408,
      "componentType": 5126,
      "count": 284,
      "max": [
        0.6226226091384888,
        0.8210840821266174,
        0.9997714161872864
      ],
      "min": [
        -0.6509693264961243,
        -0.06665098667144775,
        0.31068533658981323
      ],
      "type": "VEC3"
    },
    {
      "bufferView": 1,
      "componentType": 5126,
      "count": 284,
      "max": [
        0.9972100257873535,
        0.9976699948310852
      ],
      "min": [
        0.0024500000290572643,
        -0.000590000010561198
      ],
      "type": "VEC2"
    },
    {
      "bufferView": 0,
      "componentType": 5125,
      "count": 1548,
      "type": "SCALAR"
    },
    {
      "bufferView": 2,
      "byteOffset": 6816,
      "componentType": 5126,
      "count": 2098,
      "max": [
        1.7178900241851807,
        1.6961499452590942,
        0.14719000458717346
      ],
      "min": [
        -1.7310500144958496,
        -0.1477700024843216,
        -2.6047000885009766
      ],
      "type": "VEC3"
    },
    {
      "bufferView": 2,
      "byteOffset": 31992,
      "componentType": 5126,
      "count": 2098,
      "max": [
        0.9999983906745911,
        0.9959176778793335,
        0.9992507100105286
      ],
      "min": [
        -0.9962859749794006,
        -0.9758102297782898,
        -0.9547356367111206
      ],
      "type": "VEC3"
    },
    {
      "bufferView": 1,
      "byteOffset": 2272,
      "componentType": 5126,
      "count": 2098,
      "max": [
        0.9564099907875061,
        0.9569600224494934
      ],
      "min": [
        0.01257999986410141,
        0.4408000111579895
      ],
      "type": "VEC2"
    },
    {
      "bufferView": 0,
      "byteOffset": 6192,
      "componentType": 5125,
      "count": 11520,
      "type": "SCALAR"
    },
    {
      "bufferView": 2,
      "byteOffset": 57168,
      "componentType": 5126,
      "count": 6082,
      "max": [
        0.9805099964141846,
        0.9709799885749817,
        0.9805300235748291
      ],
      "min": [
        -5.851719856262207,
        -0.9205999970436096,
        -0.9805099964141846
      ],
      "type": "VEC3"
    },
    {
      "bufferView": 2,
      "byteOffset": 130152,
      "componentType": 5126,
      "count": 6082,
      "max": [
        1.0,
        0.9582398533821106,
        1.0
      ],
      "min": [
        -1.0,
        -1.0,
        -1.0
      ],
      "type": "VEC3"
    },
    {
      "bufferView": 1,
      "byteOffset": 19056,
      "componentType": 5126,
      "count": 6082,
      "max": [
        0.9907199740409851,
        1.0250200033187866
      ],
      "min": [
        0.0072200000286102295,
        0.01795000024139881
      ],
      "type": "VEC2"
    },
    {
      "bufferView": 0,
      "byteOffset": 52272,
      "componentType": 5125,
      "count": 35328,
      "type": "SCALAR"
    },
    {
      "bufferView": 2,
      "byteOffset": 203136,
      "componentType": 5126,
      "count": 4930,
      "max": [
        0.982990026473999,
        1.210010051727295,
        0.9829999804496765
      ],
      "min": [
        -5.8969597816467285,
        -0.8082399964332581,
        -0.982990026473999
      ],
      "type": "VEC3"
    },
    {
      "bufferView": 2,
      "byteOffset": 262296,
      "componentType": 5126,
      "count": 4930,
      "max": [
        1.0,
        0.9565579891204834,
        1.0
      ],
      "min": [
        -1.0,
        -1.0,
        -1.0
      ],
      "type": "VEC3"
    },
    {
      "bufferView": 0,
      "byteOffset": 193584,
      "componentType": 5125,
      "count": 29184,
      "type": "SCALAR"
    },
    {
      "bufferView": 2,
      "byteOffset": 321456,
      "componentType": 5126,
      "count": 3752,
      "max": [
        0.7311499714851379,
        1.6605700254440308,
        0.9913600087165833
      ],
      "min": [
        -0.6058599948883057,
        0.008089999668300152,
        0.2996399998664856
      ],
      "type": "VEC3"
    },
    {
      "bufferView": 2,
      "byteOffset": 366480,
      "componentType": 5126,
      "count": 3752,
      "max": [
        0.99986332654953,
        0.9999507069587708,
        0.9999509453773499
      ],
      "min": [
        -0.9999951720237732,
        -0.99812251329422,
        -0.9997164607048035
      ],
      "type": "VEC3"
    },
    {
      "bufferView": 1,
      "byteOffset": 67712,
      "componentType": 5126,
      "count": 3752,
      "max": [
        0.3156299889087677,
        0.7893700003623962
      ],
      "min": [
        0.021409999579191208,
        0.1694200038909912
      ],
      "type": "VEC2"
    },
    {
      "bufferView": 0,
      "byteOffset": 310320,
      "componentType": 5125,
      "count": 19968,
      "type": "SCALAR"
    },
    {
      "bufferView": 2,
      "byteOffset": 411504,
      "componentType": 5126,
      "count": 65532,
      "max": [
        0.7872599959373474,
        0.610289990901947,
        0.17430000007152557
      ],
      "min": [
        -0.762690007686615,
        0.0035000001080334187,
        -1.8804899454116821
      ],
      "type": "VEC3"
    },
    {
      "bufferView": 2,
      "byteOffset": 1197888,
      "componentType": 5126,
      "count": 65532,
      "max": [
        0.9999883770942688,
        0.9999952912330627,
        0.999999463558197
      ],
      "min": [
        -0.9999883770942688,
        -0.9999952912330627,
        -0.999999463558197
      ],
      "type": "VEC3"
    },
    {
      "bufferView": 1,
      "byteOffset": 97728,
      "componentType": 5126,
      "count": 65532,
      "max": [
        0.9536200165748596,
        0.3984299898147583
      ],
      "min": [
        0.01508999988436699,
        0.046640001237392426
      ],
      "type": "VEC2"
    },
    {
      "bufferView": 0,
      "byteOffset": 390192,
      "componentType": 5125,
      "count": 369306,
      "type": "SCALAR"
    },
    {
      "bufferView": 2,
      "byteOffset": 1984272,
      "componentType": 5126,
      "count": 37771,
      "max": [
        0.7872599959373474,
        0.610289990901947,
        0.17422999441623688
      ],
      "min": [
        -0.7696099877357483,
        0.01582000032067299,
        -1.8804899454116821
      ],
      "type": "VEC3"
    },
    {
      "bufferView": 2,
      "byteOffset": 2437524,
      "componentType": 5126,
      "count": 37771,
      "max": [
        0.9999883770942688,
        0.9999952912330627,
        0.999999463558197
      ],
      "min": [
        -0.9999883770942688,
        -0.9999616742134094,
        -0.999999463558197
      ],
      "type": "VEC3"
    },
    {
      "bufferView": 1,
      "byteOffset": 621984,
      "componentType": 5126,
      "count": 37771,
      "max": [
        0.9536200165748596,
        0.3982299864292145
      ],
      "min": [
        0.01508999988436699,
        0.046640001237392426
      ],
      "type": "VEC2"
    },
    {
      "bufferView": 0,
      "byteOffset": 1867416,
      "componentType": 5125,
      "count": 205158,
      "type": "SCALAR"
    },
    {
      "bufferView": 2,
      "byteOffset": 2890776,
      "componentType": 5126,
      "count": 1368,
      "max": [
        0.2811799943447113,
        0.17715999484062195,
        2.163130044937134
      ],
      "min": [
        -0.2737799882888794,
        -0.23759999871253967,
        2.0013999938964844
      ],
      "type": "VEC3"
    },
    {
      "bufferView": 2,
      "byteOffset": 2907192,
      "componentType": 5126,
      "count": 1368,
      "max": [
        0.9998682141304016,
        0.9999986290931702,
        0.8538992404937744
      ],
      "min": [
        -0.9998682141304016,
        -0.9999985098838806,
        -0.7918221950531006
      ],
      "type": "VEC3"
    },
    {
      "bufferView": 1,
      "byteOffset": 924152,
      "componentType": 5126,
      "count": 1368,
      "max": [
        0.9399099946022034,
        0.5682700276374817
      ],
      "min": [
        0.050050001591444016,
        0.38383999466896057
      ],
      "type": "VEC2"
    },
    {
      "bufferView": 0,
      "byteOffset": 2688048,
      "componentType": 5125,
      "count": 8208,
      "type": "SCALAR"
    },
    {
      "bufferView": 2,
      "byteOffset": 2923608,
      "componentType": 5126,
      "count": 19190,
      "max": [
        0.5069800019264221,
        0.3073500096797943,
        3.4144399166107178
      ],
      "min": [
        -0.5069800019264221,
        -0.17700999975204468,
        2.0394699573516846
      ],
      "type": "VEC3"
    },
    {
      "bufferView": 2,
      "byteOffset": 3153888,
      "componentType": 5126,
      "count": 19190,
      "max": [
        1.0,
        0.9999995827674866,
        0.9999915957450867
      ],
      "min": [
        -1.0,
        -0.9999908804893494,
        -0.999993622303009
      ],
      "type": "VEC3"
    },
    {
      "bufferView": 1,
      "byteOffset": 935096,
      "componentType": 5126,
      "count": 19190,
      "max": [
        0.8934400081634521,
        0.6549400091171265
      ],
      "min": [
        0.17621999979019165,
        0.05555000156164169
      ],
      "type": "VEC2"
    },
    {
      "bufferView": 0,
      "byteOffset": 2720880,
      "componentType": 5125,
      "count": 112260,
      "type": "SCALAR"
    },
    {
      "bufferView": 2,
      "byteOffset": 3384168,
      "componentType": 5126,
      "count": 19039,
      "max": [
        0.8764899969100952,
        0.3840799927711487,
        2.9714300632476807
      ],
      "min": [
        -0.8764899969100952,
        -0.25905999541282654,
        0.005609999876469374
      ],
      "type": "VEC3"
    },
    {
      "bufferView": 2,
      "byteOffset": 3612636,
      "componentType": 5126,
      "count": 19039,
      "max": [
        0.999911904335022,
        0.9999560713768005,
        0.9999927878379822
      ],
      "min": [
        -0.999911904335022,
        -0.9999768137931824,
        -0.9999861121177673
      ],
      "type": "VEC3"
    },
    {
      "bufferView": 1,
      "byteOffset": 1088616,
      "componentType": 5126,
      "count": 19039,
      "max": [
        0.9956200122833252,
        0.9889400005340576
      ],
      "min": [
        0.0002099999983329326,
        0.0002099999983329326
      ],
      "type": "VEC2"
    },
    {
      "bufferView": 1,
      "byteOffset": 1240928,
      "componentType": 5126,
      "count": 19039,
      "max": [
        0.7458599805831909,
        0.6804100275039673
      ],
      "min": [
        0.0,
        0.0
      ],
      "type": "VEC2"
    },
    {
      "bufferView": 1,
      "byteOffset": 1393240,
      "componentType": 5126,
      "count": 19039,
      "max": [
        0.8872399926185608,
        0.787060022354126
      ],
      "min": [
        0.14137999713420868,
        0.10665000230073929
      ],
      "type": "VEC2"
    },
    {
      "bufferView": 0,
      "byteOffset": 3169920,
      "componentType": 5125,
      "count": 102468,
      "type": "SCALAR"
    }
  ],
  "asset": {
    "extras": {
      "author": "totopremier (https://sketchfab.com/totopremier)",
      "license": "CC-BY-4.0 (http://creativecommons.org/licenses/by/4.0/)",
      "source": "https://sketchfab.com/3d-models/superman-2e345af670914ad2ada8facdb3eef79c",
      "title": "SUPERMAN"
    },
    "generator": "Sketchfab-12.68.0",
    "version": "2.0"
  },
  "bufferViews": [
    {
      "buffer": 0,
      "byteLength": 3579792,
      "name": "floatBufferViews",
      "target": 34963
    },
    {
      "buffer": 0,
      "byteLength": 1545552,
      "byteOffset": 3579792,
      "byteStride": 8,
      "name": "floatBufferViews",
      "target": 34962
    },
    {
      "buffer": 0,
      "byteLength": 3841104,
      "byteOffset": 5125344,
      "byteStride": 12,
      "name": "floatBufferViews",
      "target": 34962
    }
  ],
  "buffers": [
    {
      "byteLength": 8966448,
      "uri": "scene.bin"
    }
  ],
  "images": [
    {
      "uri": "textures/UniformLight_baseColor.png"
    },
    {
      "uri": "textures/ceinture_baseColor.png"
    },
    {
      "uri": "textures/fabric_silk_ig19.001_baseColor.png"
    },
    {
      "uri": "textures/logo_baseColor.png"
    }
  ],
  "materials": [
    {
      "doubleSided": true,
      "name": "cornea_0",
      "pbrMetallicRoughness": {
        "baseColorFactor": [
          0.6703467989956118,
          0.12553366275995492,
          0.18967687176565318,
          1.0
        ],
        "metallicFactor": 0.0,
        "roughnessFactor": 0.6
      }
    },
    {
      "doubleSided": true,
      "name": "UniformLight",
      "pbrMetallicRoughness": {
        "baseColorTexture": {
          "index": 0
        },
        "metallicFactor": 0.0,
        "roughnessFactor": 0.6
      }
    },
    {
      "doubleSided": true,
      "name": "peau.001",
      "pbrMetallicRoughness": {
        "baseColorFactor": [
          0.4530459196144188,
          0.2982557838122297,
          0.17791655490266878,
          1.0
        ],
        "metallicFactor": 0.0,
        "roughnessFactor": 0.6
      }
    },
    {
      "doubleSided": true,
      "name": "ceinture",
      "pbrMetallicRoughness": {
        "baseColorTexture": {
          "index": 1
        },
        "metallicFactor": 0.0,
        "roughnessFactor": 0.6
      }
    },
    {
      "doubleSided": true,
      "name": "fabric_silk_ig19.001",
      "pbrMetallicRoughness": {
        "baseColorTexture": {
          "index": 2
        },
        "metallicFactor": 0.0,
        "roughnessFactor": 0.6
      }
    },
    {
      "doubleSided": true,
      "name": "logo",
      "pbrMetallicRoughness": {
        "baseColorTexture": {
          "index": 3
        },
        "metallicFactor": 0.0,
        "roughnessFactor": 0.6
      }
    }
  ],
  "meshes": [
    {
      "name": "logo_0",
      "primitives": [
        {
          "attributes": {
            "NORMAL": 1,
            "POSITION": 0,
            "TEXCOORD_0": 2
          },
          "indices": 3,
          "material": 5,
          "mode": 4
        }
      ]
    },
    {
      "name": "Cape_0",
      "primitives": [
        {
          "attributes": {
            "NORMAL": 5,
            "POSITION": 4,
            "TEXCOORD_0": 6
          },
          "indices": 7,
          "material": 4,
          "mode": 4
        }
      ]
    },
    {
      "name": "eye_0",
      "primitives": [
        {
          "attributes": {
            "NORMAL": 9,
            "POSITION": 8,
            "TEXCOORD_0": 10
          },
          "indices": 11,
          "material": 0,
          "mode": 4
        }
      ]
    },
    {
      "name": "cornea_0",
      "primitives": [
        {
          "attributes": {
            "NORMAL": 13,
            "POSITION": 12
          },
          "indices": 14,
          "material": 0,
          "mode": 4
        }
      ]
    },
    {
      "name": "pan ceinture_0",
      "primitives": [
        {
          "attributes": {
            "NORMAL": 16,
            "POSITION": 15,
            "TEXCOORD_0": 17
          },
          "indices": 18,
          "material": 4,
          "mode": 4
        }
      ]
    },
    {
      "name": "short_0",
      "primitives": [
        {
          "attributes": {
            "NORMAL": 20,
            "POSITION": 19,
            "TEXCOORD_0": 21
          },
          "indices": 22,
          "material": 4,
          "mode": 4
        }
      ]
    },
    {
      "name": "short_0",
      "primitives": [
        {
          "attributes": {
            "NORMAL": 24,
            "POSITION": 23,
            "TEXCOORD_0": 25
          },
          "indices": 26,
          "material": 4,
          "mode": 4
        }
      ]
    },
    {
      "name": "ceinture_0",
      "primitives": [
        {
          "attributes": {
            "NORMAL": 28,
            "POSITION": 27,
            "TEXCOORD_0": 29
          },
          "indices": 30,
          "material": 3,
          "mode": 4
        }
      ]
    },
    {
      "name": "SuperMan_0",
      "primitives": [
        {
          "attributes": {
            "NORMAL": 32,
            "POSITION": 31,
            "TEXCOORD_0": 33
          },
          "indices": 34,
          "material": 2,
          "mode": 4
        }
      ]
    },
    {
      "name": "collant_bleu_0",
      "primitives": [
        {
          "attributes": {
            "NORMAL": 36,
            "POSITION": 35,
            "TEXCOORD_0": 37,
            "TEXCOORD_1": 38,
            "TEXCOORD_2": 39
          },
          "indices": 40,
          "material": 1,
          "mode": 4
        }
      ]
    }
  ],
  "nodes": [
    {
      "children": [
        1
      ],
      "matrix": [
        0.7977433800697327,
        0.0,
        0.0,
        0.0,
        0.0,
        0.12694772696823903,
        -0.7875777867455191,
        0.0,
        0.0,
        0.7875777867455191,
        0.12694772696823903,
        0.0,
        0.0,
        -0.10659453272819513,
        -0.2715766727924347,
        1.0
      ],
      "name": "Sketchfab_model"
    },
    {
      "children": [
        2,
        4,
        6,
        8,
        10,
        12,
        15,
        17,
        19
      ],
      "name": "Root"
    },
    {
      "children": [
        3
      ],
      "matrix": [
        1.0,
        0.0,
        0.0,
        0.0,
        0.0,
        -0.0,
        1.0,
        0.0,
        0.0,
        -1.0,
        -0.0,
        0.0,
        0.0,
        -0.2535,
        2.61973,
        1.0
      ],
      "name": "logo"
    },
    {
      "mesh": 0,
      "name": "logo_0"
    },
    {
      "children": [
        5
      ],
      "matrix": [
        1.0,
        0.0,
        0.0,
        0.0,
        0.0,
        1.0,
        0.0,
        0.0,
        0.0,
        0.0,
        1.0,
        0.0,
        0.0,
        0.12732,
        2.87118,
        1.0
      ],
      "name": "Cape"
    },
    {
      "mesh": 1,
      "name": "Cape_0"
    },
    {
      "children": [
        7
      ],
      "matrix": [
        0.024210000000000002,
        -7.000000000000003e-05,
        0.0,
        0.0,
        7.000000000000003e-05,
        0.024210000000000002,
        0.0,
        0.0,
        0.0,
        0.0,
        0.024210000000000002,
        0.0,
        0.058960000000000005,
        -0.09101000000000002,
        3.21076,
        1.0
      ],
      "name": "eye"
    },
    {
      "mesh": 2,
      "name": "eye_0"
    },
    {
      "children": [
        9
      ],
      "matrix": [
        0.024000000000000004,
        0.0,
        0.0,
        0.0,
        0.0,
        0.024000000000000004,
        0.0,
        0.0,
        0.0,
        0.0,
        0.024000000000000004,
        0.0,
        0.058960000000000005,
        -0.09644000000000003,
        3.21076,
        1.0
      ],
      "name": "cornea"
    },
    {
      "mesh": 3,
      "name": "cornea_0"
    },
    {
      "children": [
        11
      ],
      "matrix": [
        0.24571000000000004,
        0.0012200000000000004,
        0.01813,
        0.0,
        0.0010200000000000003,
        0.24450000000000002,
        -0.030320000000000007,
        0.0,
        -0.02338000000000001,
        0.03907000000000001,
        0.31425000000000003,
        0.0,
        -0.007870000000000002,
        -0.25508000000000003,
        1.88315,
        1.0
      ],
      "name": "pan ceinture"
    },
    {
      "mesh": 4,
      "name": "pan ceinture_0"
    },
    {
      "children": [
        13,
        14
      ],
      "matrix": [
        1.0,
        0.0,
        0.0,
        0.0,
        0.0,
        1.0,
        0.0,
        0.0,
        0.0,
        0.0,
        1.0,
        0.0,
        -0.007870000000000002,
        -0.25508000000000003,
        1.88315,
        1.0
      ],
      "name": "short"
    },
    {
      "mesh": 5,
      "name": "short_0"
    },
    {
      "mesh": 6,
      "name": "short_0"
    },
    {
      "children": [
        16
      ],
      "matrix": [
        1.0,
        0.0,
        0.0,
        0.0,
        0.0,
        1.0,
        0.0,
        0.0,
        0.0,
        0.0,
        1.0,
        0.0,
        -0.003700000000000001,
        -0.0022800000000000008,
        -0.023720000000000005,
        1.0
      ],
      "name": "ceinture"
    },
    {
      "mesh": 7,
      "name": "ceinture_0"
    },
    {
      "children": [
        18
      ],
      "name": "SuperMan"
    },
    {
      "mesh": 8,
      "name": "SuperMan_0"
    },
    {
      "children": [
        20
      ],
      "name": "collant_bleu"
    },
    {
      "mesh": 9,
      "name": "collant_bleu_0"
    }
  ],
  "samplers": [
    {
      "magFilter": 9729,
      "minFilter": 9987,
      "wrapS": 10497,
      "wrapT": 10497
    }
  ],
  "scene": 0,
  "scenes": [
    {
      "name": "Sketchfab_Scene",
      "nodes": [
        0
      ]
    }
  ],
  "textures": [
    {
      "sampler": 0,
      "source": 0
    },
    {
      "sampler": 0,
      "source": 1
    },
    {
      "sampler": 0,
      "source": 2
    },
    {
      "sampler": 0,
      "source": 3
    }
  ]
}
