{
  "accessors": [
    {
      "bufferView": 2,
      "componentType": 5126,
      "count": 9532,
      "max": [
        0.9493970274925232,
        1.3530850410461426,
        2.24283504486084
      ],
      "min": [
        -0.9493970274925232,
        -0.26509299874305725,
        -0.006451999768614769
      ],
      "type": "VEC3"
    },
    {
      "bufferView": 2,
      "byteOffset": 114384,
      "componentType": 5126,
      "count": 9532,
      "max": [
        0.9994739890098572,
        0.9999991059303284,
        0.9999962449073792
      ],
      "min": [
        -0.9998834133148193,
        -0.9999932646751404,
        -0.9999937415122986
      ],
      "type": "VEC3"
    },
    {
      "bufferView": 1,
      "componentType": 5126,
      "count": 9532,
      "max": [
        0.9956049919128418,
        0.9897840023040771
      ],
      "min": [
        -0.9897459745407104,
        0.00976600032299757
      ],
      "type": "VEC2"
    },
    {
      "bufferView": 0,
      "componentType": 5125,
      "count": 34755,
      "type": "SCALAR"
    }
  ],
  "asset": {
    "extras": {
      "author": "#3D $Resource$ (https://sketchfab.com/lopuh22721)",
      "license": "CC-BY-4.0 (http://creativecommons.org/licenses/by/4.0/)",
      "source": "https://sketchfab.com/3d-models/batman-b539ef1fdbb14ec0bf91ec4239fc6103",
      "title": "Batman"
    },
    "generator": "Sketchfab-12.70.0",
    "version": "2.0"
  },
  "bufferViews": [
    {
      "buffer": 0,
      "byteLength": 139020,
      "name": "floatBufferViews",
      "target": 34963
    },
    {
      "buffer": 0,
      "byteLength": 76256,
      "byteOffset": 139020,
      "byteStride": 8,
      "name": "floatBufferViews",
      "target": 34962
    },
    {
      "buffer": 0,
      "byteLength": 228768,
      "byteOffset": 215276,
      "byteStride": 12,
      "name": "floatBufferViews",
      "target": 34962
    }
  ],
  "buffers": [
    {
      "byteLength": 444044,
      "uri": "scene.bin"
    }
  ],
  "images": [
    {
      "uri": "textures/INJ_iOS_HER_BWA_AKN_B_baseColor.png"
    }
  ],
  "materials": [
    {
      "doubleSided": true,
      "name": "INJ_iOS_HER_BWA_AKN_B",
      "pbrMetallicRoughness": {
        "baseColorTexture": {
          "index": 0
        },
        "metallicFactor": 0.0,
        "roughnessFactor": 0.4814752324146192
      }
    }
  ],
  "meshes": [
    {
      "name": "Object_0",
      "primitives": [
        {
          "attributes": {
            "NORMAL": 1,
            "POSITION": 0,
            "TEXCOORD_0": 2
          },
          "indices": 3,
          "material": 0,
          "mode": 4
        }
      ]
    }
  ],
  "nodes": [
    {
      "children": [
        1
      ],
      "matrix": [
        1.0,
        0.0,
        0.0,
        0.0,
        0.0,
        2.220446049250313e-16,
        -1.0,
        0.0,
        0.0,
        1.0,
        2.220446049250313e-16,
        0.0,
        0.0,
        0.0,
        0.0,
        1.0
      ],
      "name": "Sketchfab_model"
    },
    {
      "children": [
        2
      ],
      "name": "INJ-2_iOS_HERO_Bruce_Wayne_Batman_Arkham_Knight.obj.cleaner.materialmerger.gles"
    },
    {
      "mesh": 0,
      "name": "Object_2"
    }
  ],
  "samplers": [
    {
      "magFilter": 9729,
      "minFilter": 9987,
      "wrapS": 10497,
      "wrapT": 10497
    }
  ],
  "scene": 0,
  "scenes": [
    {
      "name": "Sketchfab_Scene",
      "nodes": [
        0
      ]
    }
  ],
  "textures": [
    {
      "sampler": 0,
      "source": 0
    }
  ]
}
